<?xml version="1.0" encoding="utf-8"?>
<!-- Generator: Adobe Illustrator 24.3.0, SVG Export Plug-In . SVG Version: 6.00 Build 0)  -->
<svg version="1.1" id="Calque_1" xmlns="http://www.w3.org/2000/svg" xmlns:xlink="http://www.w3.org/1999/xlink" x="0px" y="0px"
	 viewBox="0 0 210 176.96" style="enable-background:new 0 0 210 176.96;" xml:space="preserve">
<style type="text/css">
	.st0{fill:#1A1D21;}
	.st1{fill:none;stroke:#2F3234;stroke-miterlimit:10;}
	.st2{fill:#2F3234;stroke:#2F3234;stroke-miterlimit:10;}
	.st3{fill:#0B0C0D;}
	.st4{fill:#1A62A7;}
</style>
<path class="st0" d="M187.96,176.96H22.04c-11.09,0-20.07-8.99-20.07-20.07V20.07C1.97,8.99,10.96,0,22.04,0h165.91
	c11.09,0,20.07,8.99,20.07,20.07v136.82C208.03,167.97,199.04,176.96,187.96,176.96z"/>
<path class="st1" d="M99.1,54.07H88.09c-3.58,0-6.49-2.9-6.49-6.49v0c0-3.58,2.9-6.49,6.49-6.49H99.1c3.58,0,6.49,2.9,6.49,6.49v0
	C105.59,51.17,102.68,54.07,99.1,54.07z"/>
<path class="st1" d="M152.19,54.07h-11.01c-3.58,0-6.49-2.9-6.49-6.49v0c0-3.58,2.9-6.49,6.49-6.49h11.01c3.58,0,6.49,2.9,6.49,6.49
	v0C158.68,51.17,155.77,54.07,152.19,54.07z"/>
<circle class="st2" cx="88.68" cy="47.39" r="5.11"/>
<circle class="st2" cx="141.77" cy="47.39" r="5.11"/>
<path class="st3" d="M46.21,54.46H27.53c-3.58,0-6.49-2.9-6.49-6.49v0c0-3.58,2.9-6.49,6.49-6.49h18.68c3.58,0,6.49,2.9,6.49,6.49v0
	C52.7,51.56,49.79,54.46,46.21,54.46z"/>
<path class="st4" d="M182.66,153.36H27.34c-3.58,0-6.49-2.9-6.49-6.49v0c0-3.58,2.9-6.49,6.49-6.49h155.33
	c3.58,0,6.49,2.9,6.49,6.49v0C189.15,150.46,186.25,153.36,182.66,153.36z"/>
<path class="st2" d="M184.55,87.3H25.83c-2.54,0-4.61-2.06-4.61-4.61v0c0-2.54,2.06-4.61,4.61-4.61h158.71
	c2.54,0,4.61,2.06,4.61,4.61v0C189.15,85.24,187.09,87.3,184.55,87.3z"/>
<path class="st2" d="M184.44,102.16H25.73c-2.54,0-4.61-2.06-4.61-4.61v0c0-2.54,2.06-4.61,4.61-4.61h158.71
	c2.54,0,4.61,2.06,4.61,4.61v0C189.05,100.1,186.99,102.16,184.44,102.16z"/>
<path class="st2" d="M184.44,117.1H25.73c-2.54,0-4.61-2.06-4.61-4.61v0c0-2.54,2.06-4.61,4.61-4.61h158.71
	c2.54,0,4.61,2.06,4.61,4.61v0C189.05,115.04,186.99,117.1,184.44,117.1z"/>
</svg>
