<?xml version="1.0" encoding="utf-8"?>
<!-- Generator: Adobe Illustrator 24.3.0, SVG Export Plug-In . SVG Version: 6.00 Build 0)  -->
<svg version="1.1" id="Calque_1" xmlns="http://www.w3.org/2000/svg" xmlns:xlink="http://www.w3.org/1999/xlink" x="0px" y="0px"
	 viewBox="0 0 1366 768" style="enable-background:new 0 0 1366 768;" xml:space="preserve">
<style type="text/css">
	.st0{fill:#111417;}
	.st1{fill:#191C20;}
	.st2{fill:none;stroke:#2E3133;stroke-miterlimit:10;}
	.st3{fill:#2E3133;stroke:#2E3133;stroke-miterlimit:10;}
	.st4{fill:#0A0B0C;}
	.st5{fill:#1861A6;}
	.st6{fill:#3B3E3F;stroke:#2E3133;stroke-miterlimit:10;}
</style>
<rect x="85.01" y="225" class="st0" width="581.1" height="355"/>
<path class="st1" d="M1219.93,586H736.07c-11.09,0-20.07-8.99-20.07-20.07V156.07c0-11.09,8.99-20.07,20.07-20.07h483.86
	c11.09,0,20.07,8.99,20.07,20.07v409.86C1240,577.01,1231.01,586,1219.93,586z"/>
<path class="st2" d="M965.5,273.5h-33c-7.73,0-14-6.27-14-14v-5c0-7.73,6.27-14,14-14h33c7.73,0,14,6.27,14,14v5
	C979.5,267.23,973.23,273.5,965.5,273.5z"/>
<path class="st2" d="M1100.5,273.5h-33c-7.73,0-14-6.27-14-14v-5c0-7.73,6.27-14,14-14h33c7.73,0,14,6.27,14,14v5
	C1114.5,267.23,1108.23,273.5,1100.5,273.5z"/>
<circle class="st3" cx="936.5" cy="256.5" r="13"/>
<circle class="st3" cx="1071.5" cy="256.5" r="13"/>
<path class="st4" d="M837.07,274.5h-64.64c-4.38,0-7.93-3.55-7.93-7.93v-17.14c0-4.38,3.55-7.93,7.93-7.93h64.64
	c4.38,0,7.93,3.55,7.93,7.93v17.14C845,270.95,841.45,274.5,837.07,274.5z"/>
<path class="st5" d="M1184.07,526H771.93c-4.38,0-7.93-3.55-7.93-7.93v-17.14c0-4.38,3.55-7.93,7.93-7.93h412.14
	c4.38,0,7.93,3.55,7.93,7.93v17.14C1192,522.45,1188.45,526,1184.07,526z"/>
<rect x="97" y="537.5" class="st3" width="556.5" height="2.5"/>
<path class="st3" d="M1184.07,358H772.89c-4.38,0-7.93-3.55-7.93-7.93v-7.57c0-4.38,3.55-7.93,7.93-7.93h411.18
	c4.38,0,7.93,3.55,7.93,7.93v7.57C1192,354.45,1188.45,358,1184.07,358z"/>
<path class="st3" d="M1183.8,395.79H772.63c-4.38,0-7.93-3.55-7.93-7.93v-7.57c0-4.38,3.55-7.93,7.93-7.93h411.18
	c4.38,0,7.93,3.55,7.93,7.93v7.57C1191.73,392.24,1188.18,395.79,1183.8,395.79z"/>
<path class="st3" d="M1183.8,433.79H772.63c-4.38,0-7.93-3.55-7.93-7.93v-7.57c0-4.38,3.55-7.93,7.93-7.93h411.18
	c4.38,0,7.93,3.55,7.93,7.93v7.57C1191.73,430.24,1188.18,433.79,1183.8,433.79z"/>
<path class="st6" d="M504.02,178.86H92.84c-4.38,0-7.93-3.55-7.93-7.93v-7.57c0-4.38,3.55-7.93,7.93-7.93h411.18
	c4.38,0,7.93,3.55,7.93,7.93v7.57C511.95,175.31,508.4,178.86,504.02,178.86z"/>
</svg>
